{
  "asset": {
    "version": "2.0",
    "generator": "Sketchup glTF Exporter v1.2.6 by Centaur"
  },
  "scene": 0,
  "scenes": [
    {
      "nodes": [
        0
      ]
    }
  ],
  "samplers": [
    {
    }
  ],
  "nodes": [
    {
      "name": "root",
      "children": [
        1,
        2,
        6,
        7
      ]
    },
    {
      "name": "Cylinder.003#1",
      "mesh": 0
    },
    {
      "name": "skp3703",
      "children": [
        3,
        4,
        5
      ]
    },
    {
      "name": "Cylinder#13",
      "mesh": 1
    },
    {
      "name": "Icosphere#5",
      "mesh": 2
    },
    {
      "name": "Icosphere.00#5",
      "mesh": 3
    },
    {
      "name": "skp7EEA",
      "mesh": 4
    },
    {
      "name": "skpC133",
      "mesh": 5
    }
  ],
  "materials": [
    {
      "pbrMetallicRoughness": {
        "baseColorFactor": [
          0.0005,
          0.0,
          0.0,
          1.0
        ],
        "metallicFactor": 0.1,
        "roughnessFactor": 0.9
      },
      "name": "Material.7"
    },
    {
      "pbrMetallicRoughness": {
        "baseColorFactor": [
          0.2758,
          0.1604,
          0.0619,
          1.0
        ],
        "metallicFactor": 0.1,
        "roughnessFactor": 0.9
      },
      "name": "Color C08"
    },
    {
      "pbrMetallicRoughness": {
        "baseColorFactor": [
          0.0415,
          0.1011,
          0.017,
          1.0
        ],
        "metallicFactor": 0.1,
        "roughnessFactor": 0.9
      },
      "name": "Color E08"
    }
  ],
  "meshes": [
    {
      "primitives": [
        {
          "attributes": {
            "POSITION": 0,
            "NORMAL": 1
          },
          "indices": 2,
          "mode": 4,
          "material": 0
        }
      ]
    },
    {
      "primitives": [
        {
          "attributes": {
            "POSITION": 0,
            "NORMAL": 1
          },
          "indices": 3,
          "mode": 4,
          "material": 1
        }
      ]
    },
    {
      "primitives": [
        {
          "attributes": {
            "POSITION": 0,
            "NORMAL": 1
          },
          "indices": 4,
          "mode": 4,
          "material": 2
        }
      ]
    },
    {
      "primitives": [
        {
          "attributes": {
            "POSITION": 0,
            "NORMAL": 1
          },
          "indices": 5,
          "mode": 4,
          "material": 2
        }
      ]
    },
    {
      "primitives": [
        {
          "attributes": {
            "POSITION": 0,
            "NORMAL": 1
          },
          "indices": 6,
          "mode": 4,
          "material": 2
        },
        {
          "attributes": {
            "POSITION": 0,
            "NORMAL": 1
          },
          "indices": 7,
          "mode": 4,
          "material": 1
        }
      ]
    },
    {
      "primitives": [
        {
          "attributes": {
            "POSITION": 0,
            "NORMAL": 1
          },
          "indices": 8,
          "mode": 4,
          "material": 2
        },
        {
          "attributes": {
            "POSITION": 0,
            "NORMAL": 1
          },
          "indices": 9,
          "mode": 4,
          "material": 1
        }
      ]
    }
  ],
  "accessors": [
    {
      "bufferView": 0,
      "componentType": 5126,
      "count": 6818,
      "type": "VEC3",
      "min": [
        14.1829877668906,
        -0.044811028865575975,
        -4.121388328714769
      ],
      "max": [
        26.57683512684296,
        7.518145452237323,
        5.175425618311269
      ]
    },
    {
      "bufferView": 1,
      "componentType": 5126,
      "count": 6818,
      "type": "VEC3",
      "min": [
        -0.9986121954916595,
        -1.0,
        -0.9995829428602387
      ],
      "max": [
        0.9997773304247708,
        1.0,
        0.9995341840842505
      ]
    },
    {
      "bufferView": 2,
      "componentType": 5123,
      "count": 468,
      "type": "SCALAR"
    },
    {
      "bufferView": 2,
      "componentType": 5123,
      "count": 1614,
      "type": "SCALAR",
      "byteOffset": 936
    },
    {
      "bufferView": 2,
      "componentType": 5123,
      "count": 240,
      "type": "SCALAR",
      "byteOffset": 4164
    },
    {
      "bufferView": 2,
      "componentType": 5123,
      "count": 240,
      "type": "SCALAR",
      "byteOffset": 4644
    },
    {
      "bufferView": 2,
      "componentType": 5123,
      "count": 1920,
      "type": "SCALAR",
      "byteOffset": 5124
    },
    {
      "bufferView": 2,
      "componentType": 5123,
      "count": 864,
      "type": "SCALAR",
      "byteOffset": 8964
    },
    {
      "bufferView": 2,
      "componentType": 5123,
      "count": 480,
      "type": "SCALAR",
      "byteOffset": 10692
    },
    {
      "bufferView": 2,
      "componentType": 5123,
      "count": 1266,
      "type": "SCALAR",
      "byteOffset": 11652
    }
  ],
  "bufferViews": [
    {
      "buffer": 0,
      "byteLength": 81816,
      "target": 34962,
      "byteStride": 12
    },
    {
      "buffer": 0,
      "byteOffset": 81816,
      "byteLength": 81816,
      "target": 34962,
      "byteStride": 12
    },
    {
      "buffer": 0,
      "byteOffset": 163632,
      "byteLength": 14184,
      "target": 34963
    }
  ],
  "buffers": [
    {
      "uri": "data:application/octet-stream;base64,",
      "byteLength": 177816
    }
  ]
}